# xmcd CD database file
#
# Track frame offsets:
#	182
#	14582
#	26945
#	39177
#	52677
#	66997
#	80037
#	92622
#	107417
#	123442
#	138540
#	153612
#	166660
#	176262
#
# Disc length: 2534 seconds
#
# Revision: 0
# Processed by: cddbd v1.4PL0 Copyright (c) Steve Scherf et al.
# Submitted via: CDex 1.40PlusFr
#
DISCID=ad09e40e
DTITLE=The Mississippi Snake - Hits of Country (volume 1)
DYEAR=1900
DGENRE=Country
TTITLE0=Take me home, country roads
TTITLE1=Don't it make my brown eyes blue
TTITLE2=Blue Kentucky girl
TTITLE3=Ruby baby
TTITLE4=If lovin' you is wrong (I don't want to be right)
TTITLE5=Rose garden
TTITLE6=Please Mr. postman
TTITLE7=Orange blossom special
TTITLE8=Have mercy
TTITLE9=40 hours week
TTITLE10=Heartbreaker
TTITLE11=Country boy you got your fett in L.A.
TTITLE12=Cowboy boots
TTITLE13=Hurt so bad
EXTD=ID3G: 2
EXTT0=
EXTT1=
EXTT2=
EXTT3=
EXTT4=
EXTT5=
EXTT6=
EXTT7=
EXTT8=
EXTT9=
EXTT10=
EXTT11=
EXTT12=
EXTT13=
PLAYORDER=
